<?xml version="1.0" encoding="utf-8"?>
<!-- Generator: Adobe Illustrator 19.0.0, SVG Export Plug-In . SVG Version: 6.00 Build 0)  -->
<svg version="1.1" id="Layer_1" xmlns="http://www.w3.org/2000/svg" xmlns:xlink="http://www.w3.org/1999/xlink" x="0px" y="0px"
	 viewBox="0 0 1190 614.1" style="enable-background:new 0 0 1190 614.1;" xml:space="preserve">
<style type="text/css">
	.st0{clip-path:url(#XMLID_31_);fill:url(#XMLID_32_);}
</style>
<g id="XMLID_2_">
	<defs>
		<rect id="XMLID_3_" width="1190" height="614.1"/>
	</defs>
	<clipPath id="XMLID_31_">
		<use xlink:href="#XMLID_3_"  style="overflow:visible;"/>
	</clipPath>
	
		<linearGradient id="XMLID_32_" gradientUnits="userSpaceOnUse" x1="1.0026" y1="614.9863" x2="2.0026" y2="614.9863" gradientTransform="matrix(-103.819 -456.96 -456.96 103.819 281845.6875 -62723.3984)">
		<stop  offset="0" style="stop-color:#FF264D"/>
		<stop  offset="0.2088" style="stop-color:#FF264D"/>
		<stop  offset="1" style="stop-color:#FF7607"/>
	</linearGradient>
	<path id="XMLID_4_" class="st0" d="M208.2,392.5l214,144.2L288.4,267.2c-17.3-34.8-12.1-76.8,13-106.4
		c25.1-29.6,65.7-41.5,102.8-30.2l818,249.6l-28.5,93.3l-53.5,81.5L619.8,213.4c-45-29.5-57.6-90-28-135s90-57.6,135-28l520.5,341.5
		c40.6,26.6,55.4,78.9,34.8,122.9c-20.6,44-70.3,66-116.7,51.9L563.6,383.1l197,397.1c19.6,39.6,10.1,87.6-23.1,116.7
		c-33.2,29.1-82.1,32.2-118.7,7.5L99.2,554.3c-44.7-30.1-56.5-90.7-26.4-135.3S163.5,362.4,208.2,392.5L208.2,392.5z"/>
</g>
</svg>
